<?xml version="1.0" standalone="no"?>
<!DOCTYPE svg PUBLIC "-//W3C//DTD SVG 20010904//EN"
 "http://www.w3.org/TR/2001/REC-SVG-20010904/DTD/svg10.dtd">
<svg version="1.0" xmlns="http://www.w3.org/2000/svg"
 width="1024.000000pt" height="1024.000000pt" viewBox="0 0 1024.000000 1024.000000"
 preserveAspectRatio="xMidYMid meet">
<metadata>
Created by potrace 1.14, written by Peter Selinger 2001-2017
</metadata>
<g transform="translate(0.000000,1024.000000) scale(0.100000,-0.100000)"
fill="#000000" stroke="none">
<path d="M0 5120 l0 -5120 5120 0 5120 0 0 5120 0 5120 -5120 0 -5120 0 0
-5120z m5310 4045 c330 -32 587 -92 897 -208 67 -25 130 -50 140 -55 10 -6 85
-43 167 -83 82 -40 175 -90 207 -111 32 -21 60 -38 62 -38 12 0 256 -171 293
-205 6 -5 30 -26 54 -45 133 -107 380 -354 460 -460 14 -18 32 -41 40 -51 8
-9 24 -30 35 -45 11 -15 25 -32 30 -38 18 -19 115 -156 115 -162 0 -3 13 -25
30 -49 16 -24 30 -47 30 -50 0 -4 9 -20 21 -36 36 -52 169 -305 169 -323 0 -3
15 -37 33 -78 19 -40 39 -89 46 -108 7 -19 17 -44 21 -55 5 -11 14 -38 20 -60
6 -22 15 -49 20 -60 16 -38 60 -190 70 -245 6 -30 15 -69 20 -85 5 -17 14 -66
21 -110 6 -44 14 -96 19 -115 41 -164 48 -785 10 -955 -5 -22 -14 -78 -21
-125 -6 -47 -15 -94 -19 -105 -5 -11 -11 -36 -13 -55 -6 -41 -36 -167 -47
-195 -5 -11 -14 -42 -21 -70 -10 -41 -81 -243 -106 -305 -3 -8 -5 -18 -5 -22
1 -5 -2 -8 -6 -8 -4 0 -14 -17 -21 -37 -13 -39 -131 -277 -172 -348 -12 -22
-29 -53 -38 -68 -61 -110 -236 -355 -288 -404 -13 -12 -23 -27 -23 -34 0 -6
-7 -8 -16 -5 -8 3 -12 2 -9 -4 3 -6 1 -10 -5 -10 -6 0 -8 -4 -5 -10 3 -5 1
-10 -5 -10 -6 0 -9 -4 -6 -9 4 -5 -4 -7 -16 -5 -13 2 -17 1 -10 -2 10 -5 10
-9 1 -20 -6 -8 -15 -11 -20 -8 -5 3 -6 -3 -2 -12 4 -12 3 -15 -5 -10 -8 4 -12
1 -12 -10 0 -10 -3 -14 -7 -10 -4 3 -13 -4 -20 -16 -7 -13 -12 -17 -13 -10 0
16 -35 -15 -35 -31 0 -6 -6 -12 -14 -15 -10 -3 -13 2 -9 22 4 18 1 26 -9 26
-8 0 -11 5 -8 10 4 6 11 8 16 5 5 -4 9 3 9 14 0 15 4 19 17 14 11 -4 14 -3 9
6 -11 18 24 56 37 39 6 -9 7 -8 4 4 -5 15 14 42 24 35 2 -2 12 5 22 15 19 20
9 25 -13 5 -8 -6 -6 -2 4 10 15 18 22 20 32 12 8 -6 11 -16 7 -22 -4 -6 -1 -7
6 -3 9 6 8 12 -4 26 -17 19 -12 46 6 34 5 -3 8 -2 7 3 -3 8 71 105 85 111 4 2
7 8 7 13 0 6 17 33 38 62 75 102 167 253 238 392 25 50 49 95 53 100 4 6 31
69 60 140 29 72 56 139 61 150 5 11 18 54 30 95 12 41 26 82 30 92 13 24 50
182 50 212 0 16 4 25 10 21 6 -4 10 17 10 55 0 38 4 59 10 55 6 -4 10 8 10 29
0 20 4 36 9 36 4 0 11 28 15 63 4 34 11 91 16 127 32 240 32 494 1 755 -5 44
-10 89 -11 100 -2 17 -3 16 -10 -5 -6 -18 -8 -4 -9 48 -1 40 -5 71 -10 68 -4
-3 -11 20 -15 52 -3 31 -15 95 -26 142 -12 47 -27 113 -34 147 -14 63 -25 98
-53 162 -9 19 -15 45 -15 58 0 12 -4 23 -9 23 -5 0 -9 15 -9 33 0 24 -3 28
-10 17 -7 -11 -10 -7 -10 17 0 17 -3 33 -7 35 -12 5 -44 72 -46 96 -1 12 -5
22 -9 22 -11 0 -68 125 -69 152 0 14 -3 17 -6 9 -4 -9 -10 -3 -19 18 -7 17
-13 34 -13 38 1 3 -3 9 -9 12 -12 8 -82 119 -82 130 0 5 -6 11 -14 14 -9 4
-12 14 -9 28 5 16 3 20 -6 15 -8 -5 -11 -3 -9 5 1 8 0 14 -4 14 -4 0 -20 18
-35 40 -15 22 -35 49 -45 59 -10 11 -18 26 -18 33 0 7 -4 13 -9 13 -5 0 -13
10 -17 22 -3 12 -13 28 -20 36 -8 7 -11 18 -8 24 4 7 2 8 -5 4 -15 -10 -39 15
-33 34 3 8 1 12 -3 8 -10 -10 -65 53 -58 66 3 6 3 8 -2 4 -4 -4 -22 9 -39 30
-92 110 -466 452 -495 452 -5 0 -11 4 -13 8 -1 5 -52 41 -113 80 -60 40 -116
77 -123 83 -7 6 -46 28 -88 49 -41 21 -80 42 -87 47 -11 9 -140 70 -267 125
-30 14 -86 36 -125 49 -38 13 -71 27 -73 31 -2 5 -15 8 -28 8 -14 0 -23 4 -20
9 3 4 -6 6 -21 3 -16 -3 -24 -1 -20 5 4 6 -9 10 -30 11 -19 1 -40 6 -47 11 -6
5 -32 12 -59 16 -26 4 -49 11 -52 15 -3 5 -29 11 -58 15 -28 4 -56 10 -62 13
-12 8 -18 9 -51 11 -16 1 -23 5 -18 12 5 8 -9 9 -49 5 -34 -4 -58 -3 -62 4 -3
5 -38 10 -76 10 -42 0 -68 4 -64 9 3 6 -109 10 -297 10 -200 1 -298 -3 -288
-9 10 -7 -6 -10 -56 -10 -39 0 -74 -3 -77 -7 -4 -3 -35 -6 -70 -4 -45 1 -58
-1 -47 -9 13 -8 12 -10 -5 -11 -11 -1 -27 -1 -37 0 -9 1 -54 -7 -101 -19 -47
-11 -92 -20 -101 -20 -9 0 -16 -4 -16 -10 0 -5 -9 -10 -19 -10 -11 0 -22 -4
-25 -9 -4 -5 -30 -12 -59 -16 -28 -4 -54 -11 -57 -15 -3 -4 -14 -10 -25 -12
-11 -1 -22 -6 -25 -9 -7 -7 -124 -49 -139 -49 -7 0 -30 -9 -53 -20 -22 -11
-44 -17 -48 -15 -4 3 -11 -2 -14 -11 -3 -8 -10 -13 -15 -10 -5 4 -11 3 -13 -2
-1 -4 -70 -41 -151 -81 -82 -41 -164 -85 -183 -97 -52 -35 -91 -54 -98 -47 -3
4 -6 -2 -6 -11 0 -10 -5 -16 -12 -14 -7 3 -23 -6 -36 -19 -13 -13 -28 -21 -33
-18 -5 4 -9 1 -9 -4 0 -6 -5 -11 -12 -11 -11 0 -29 -15 -70 -57 -11 -12 -25
-20 -29 -18 -4 3 -10 -4 -14 -15 -3 -11 -11 -21 -16 -21 -5 -1 -15 -2 -21 -3
-7 -1 -12 -7 -11 -13 1 -6 -11 -16 -28 -22 -19 -7 -28 -15 -23 -22 4 -7 3 -9
-3 -6 -6 4 -26 -8 -44 -27 -19 -18 -47 -41 -62 -50 -15 -10 -27 -25 -27 -32 0
-8 -6 -14 -14 -14 -8 0 -18 -9 -21 -20 -3 -11 -11 -20 -16 -20 -12 0 -99 -91
-99 -103 0 -4 -4 -5 -10 -2 -5 3 -10 0 -10 -8 0 -7 -15 -27 -32 -44 -37 -34
-68 -70 -68 -79 0 -3 -6 -11 -12 -18 -7 -7 -26 -30 -43 -51 -16 -20 -35 -43
-42 -50 -7 -7 -9 -15 -6 -19 4 -3 -1 -6 -10 -6 -9 0 -19 -11 -23 -25 -3 -14
-10 -22 -15 -19 -5 3 -9 0 -9 -6 0 -6 -7 -18 -15 -27 -8 -8 -12 -19 -9 -25 4
-6 2 -8 -3 -5 -10 7 -28 -20 -25 -35 1 -5 -3 -8 -8 -8 -6 0 -15 -10 -20 -22
-6 -13 -16 -32 -22 -43 -50 -78 -78 -127 -78 -135 0 -6 -4 -10 -10 -10 -5 0
-13 -12 -16 -27 -9 -35 -32 -83 -50 -101 -8 -7 -12 -17 -9 -22 3 -4 -2 -11
-11 -14 -8 -3 -13 -10 -9 -15 3 -5 1 -12 -5 -16 -6 -4 -8 -11 -5 -16 4 -5 2
-9 -4 -9 -6 0 -13 -16 -17 -35 -3 -19 -10 -35 -15 -35 -5 0 -9 -9 -9 -20 0
-11 -4 -20 -10 -20 -5 0 -10 -8 -10 -17 0 -10 -6 -30 -14 -45 -8 -14 -19 -43
-26 -65 -6 -21 -20 -60 -30 -88 -29 -80 -57 -175 -71 -240 -7 -33 -16 -64 -20
-70 -4 -5 -10 -36 -14 -68 -4 -31 -11 -59 -15 -62 -4 -2 -8 -26 -9 -52 -1 -26
-8 -73 -16 -103 -8 -30 -15 -80 -15 -110 0 -30 -5 -71 -10 -90 -14 -47 -14
-603 0 -629 13 -25 13 -41 0 -41 -5 0 -10 10 -10 23 0 32 -15 54 -23 33 -4 -9
-4 -22 -2 -28 2 -7 -2 -42 -9 -78 l-13 -65 -1 113 c-1 62 -4 127 -7 145 -13
82 -19 176 -19 332 -1 233 9 338 49 555 8 41 16 86 19 100 2 14 16 70 31 125
15 55 30 112 32 128 3 15 9 27 14 27 5 0 9 10 9 23 0 13 11 56 25 95 14 39 25
78 25 87 0 8 3 15 8 15 4 0 16 24 26 53 10 28 38 93 61 142 23 50 46 101 50
115 4 14 10 27 14 30 3 3 15 23 27 45 38 73 71 129 120 205 27 41 53 82 59 91
36 56 87 128 109 154 15 17 39 48 54 70 15 22 37 48 50 58 12 10 22 25 22 33
0 8 7 14 15 14 8 0 15 3 15 8 0 4 21 29 45 55 25 26 45 53 45 60 1 7 11 20 23
29 42 34 82 70 67 62 -8 -4 2 9 22 29 21 20 39 37 42 37 2 0 18 12 33 28 33
30 114 102 168 147 19 17 41 35 49 42 7 6 87 61 177 121 159 107 422 251 524
287 28 10 55 22 60 26 42 30 417 142 590 176 117 23 187 32 310 43 61 5 117
12 125 14 36 9 318 4 450 -9z m-223 -480 c25 -44 60 -105 78 -135 18 -30 42
-71 53 -90 11 -19 50 -87 87 -150 38 -63 75 -128 83 -145 9 -16 18 -32 21 -35
16 -14 30 -50 21 -55 -5 -3 -72 -5 -147 -4 l-138 1 0 -673 0 -673 35 -8 c19
-5 44 -13 55 -18 11 -5 49 -21 85 -35 170 -69 230 -130 232 -233 1 -47 -5 -70
-27 -111 -30 -55 -113 -138 -185 -185 -97 -63 -220 -173 -220 -196 0 -6 -4
-10 -8 -10 -16 0 -42 -78 -42 -126 0 -47 5 -62 56 -154 16 -30 158 -170 172
-170 6 0 12 -4 14 -8 8 -19 71 -57 283 -170 178 -95 279 -162 385 -255 241
-210 356 -396 407 -657 11 -54 7 -267 -5 -315 -8 -27 -20 -77 -29 -110 -8 -33
-37 -115 -64 -182 -27 -67 -56 -145 -65 -175 -8 -29 -19 -62 -24 -73 -51 -117
-90 -364 -89 -569 0 -268 38 -444 138 -644 60 -122 287 -387 420 -492 25 -19
68 -57 96 -85 28 -27 66 -61 84 -75 18 -14 38 -30 44 -35 7 -6 32 -26 57 -45
25 -19 50 -39 57 -45 101 -87 397 -244 648 -343 165 -65 370 -130 575 -182
l75 -19 -128 3 c-100 3 -132 7 -146 20 -10 9 -24 16 -32 16 -13 0 -164 52
-324 110 -33 12 -88 35 -123 51 -34 16 -76 32 -92 36 -17 3 -30 9 -30 14 0 5
-7 9 -16 9 -9 0 -33 8 -53 19 -20 10 -56 27 -81 37 -74 31 -299 192 -375 268
-22 22 -45 34 -45 23 0 -2 55 -59 123 -128 69 -69 144 -157 171 -199 27 -41
55 -81 64 -87 14 -12 13 -13 -5 -13 -11 0 -28 9 -38 20 -10 11 -43 34 -72 51
-29 17 -59 36 -66 42 -6 7 -32 26 -57 42 -25 17 -49 35 -55 41 -5 6 -28 24
-50 40 -22 16 -44 34 -50 40 -5 6 -30 26 -55 45 -25 18 -65 52 -89 74 -175
159 -301 283 -301 296 0 6 -4 7 -10 4 -6 -3 -10 -1 -10 4 0 6 -8 20 -17 30
-47 51 -161 197 -182 234 -77 135 -112 220 -156 382 -27 96 -28 106 -22 266 3
91 10 177 15 190 6 13 15 57 21 98 13 81 84 328 108 376 33 62 85 224 113 345
15 69 36 152 46 185 22 74 26 349 7 435 -14 61 -61 179 -78 197 -7 6 -18 25
-25 42 -7 17 -16 31 -21 31 -5 0 -9 6 -9 14 0 37 -209 271 -305 343 -130 97
-167 123 -215 152 -69 42 -133 84 -140 91 -3 3 -16 11 -29 18 -13 8 -39 22
-57 32 -92 52 -245 182 -313 266 -12 16 -38 61 -57 100 -45 94 -47 160 -6 220
31 47 121 128 207 186 146 100 206 150 240 201 64 96 60 170 -12 242 -25 25
-47 44 -49 42 -3 -2 16 -24 41 -49 40 -41 45 -50 45 -92 0 -90 -72 -181 -226
-286 -238 -160 -324 -254 -324 -351 0 -40 49 -165 84 -214 68 -97 173 -191
331 -296 44 -29 85 -57 90 -62 6 -4 46 -31 90 -59 129 -83 234 -166 320 -252
123 -124 169 -189 224 -308 69 -153 77 -265 31 -453 -36 -144 -40 -156 -125
-303 -33 -56 -67 -115 -75 -129 -23 -40 -43 -63 -51 -57 -4 2 -6 -7 -5 -20 2
-14 -3 -27 -10 -30 -8 -3 -14 -13 -14 -21 0 -9 -5 -13 -11 -10 -6 4 -10 1 -9
-6 3 -21 -11 -59 -21 -59 -5 0 -9 -5 -9 -10 0 -6 -9 -29 -20 -53 -10 -23 -26
-62 -34 -87 -89 -281 -111 -445 -86 -658 10 -86 64 -324 80 -354 6 -10 10 -26
10 -36 0 -9 6 -26 14 -37 7 -11 17 -31 21 -45 14 -48 88 -196 138 -275 47 -76
164 -244 177 -255 3 -3 37 -43 74 -90 106 -131 227 -254 338 -340 10 -8 31
-25 46 -38 36 -31 264 -182 329 -218 62 -34 68 -49 16 -39 -21 4 -351 11 -733
14 -382 4 -684 8 -670 10 16 2 19 5 9 8 -8 2 -24 23 -33 46 -10 23 -38 81 -61
128 -24 47 -57 130 -75 185 -70 213 -88 273 -115 374 l-28 105 -41 -2 c-32 -2
-36 -1 -16 5 32 10 -193 22 -417 22 -113 0 -162 -3 -158 -11 4 -5 0 -18 -8
-27 -8 -9 -20 -42 -26 -72 -7 -30 -18 -82 -26 -115 -13 -53 -50 -224 -75 -340
-4 -22 -12 -58 -16 -80 -4 -22 -10 -42 -13 -45 -10 -8 -31 -74 -31 -96 0 -11
-4 -24 -9 -30 -5 -5 -12 -22 -15 -39 -2 -16 -2 9 0 58 3 48 14 122 25 165 31
114 39 180 32 239 -5 43 -9 53 -24 53 -12 0 -19 7 -19 20 0 13 -7 20 -20 20
-11 0 -20 7 -20 15 0 8 -9 24 -20 35 -11 11 -20 31 -20 45 0 24 -3 25 -60 25
-53 0 -60 2 -60 20 0 13 -7 20 -20 20 -16 0 -20 7 -20 30 0 23 -4 30 -20 30
-11 0 -20 5 -20 10 0 6 -18 10 -40 10 -33 0 -40 3 -40 20 0 13 -7 20 -20 20
-13 0 -20 7 -20 20 0 13 -7 20 -20 20 -13 0 -20 7 -20 20 0 17 -7 20 -40 20
l-40 0 0 40 0 40 -40 0 c-33 0 -40 3 -40 20 0 17 -7 20 -40 20 -39 0 -40 1
-40 34 0 33 -1 34 -54 40 -46 6 -54 10 -49 24 3 10 -10 2 -30 -17 -20 -19 -34
-38 -31 -43 3 -4 1 -8 -4 -8 -11 0 -35 -24 -102 -100 -30 -34 -71 -79 -90
-100 -19 -21 -71 -77 -115 -125 -170 -185 -351 -344 -448 -394 -15 -8 -27 -18
-27 -21 0 -4 -15 -13 -32 -21 -18 -7 -35 -16 -38 -20 -3 -3 -33 -21 -68 -39
-34 -17 -64 -36 -67 -40 -3 -5 -19 -11 -35 -15 -17 -4 -30 -10 -30 -14 0 -4
-33 -22 -72 -41 -40 -18 -86 -39 -103 -47 -68 -33 -347 -133 -370 -133 -26 0
-34 14 -12 23 84 33 281 113 312 127 22 10 65 28 95 41 180 75 482 260 615
375 68 59 309 303 379 385 16 19 73 81 125 139 53 58 117 130 141 160 25 30
47 57 50 60 5 5 103 118 150 174 14 16 32 37 40 46 8 8 35 40 60 70 41 50 55
66 107 126 10 11 43 49 73 84 30 35 80 91 111 124 31 34 69 76 84 93 15 18 45
52 68 76 23 24 78 83 122 132 93 104 69 78 265 286 264 279 274 290 299 313
24 21 138 138 156 159 54 64 135 157 158 182 49 52 112 155 148 243 8 17 17
32 21 32 5 0 8 7 8 16 0 8 7 37 16 65 25 74 4 168 -69 319 -12 25 -25 47 -29
48 -5 2 -8 10 -8 18 0 8 -9 22 -20 31 -11 10 -20 21 -20 26 0 5 -6 14 -12 21
-7 7 -29 33 -48 57 -19 24 -107 116 -195 204 -177 176 -212 214 -269 294 -73
100 -79 117 -80 223 -1 53 -4 94 -8 92 -19 -12 -40 -97 -35 -143 6 -51 43
-135 77 -174 10 -12 27 -32 37 -44 67 -78 173 -191 269 -287 150 -150 244
-284 244 -346 0 -15 4 -30 10 -36 5 -5 13 -50 16 -99 5 -72 3 -96 -10 -120 -9
-16 -16 -35 -16 -41 0 -43 -182 -294 -301 -416 -20 -20 -47 -49 -60 -65 -22
-24 -51 -51 -169 -151 -45 -38 -66 -56 -146 -127 -43 -38 -89 -80 -102 -93
-12 -12 -26 -22 -30 -22 -4 0 -26 -17 -49 -38 -22 -20 -58 -50 -79 -67 -38
-30 -89 -72 -174 -146 -25 -21 -59 -49 -76 -61 -17 -13 -62 -50 -99 -83 -38
-33 -78 -69 -91 -80 -82 -72 -229 -208 -352 -325 -18 -17 -37 -28 -42 -25 -5
3 -7 0 -4 -8 4 -11 -1 -13 -20 -10 -16 3 -26 1 -26 -6 0 -6 -9 -11 -20 -11
-18 0 -26 20 -21 52 0 4 -6 5 -14 2 -8 -4 -12 -10 -9 -15 3 -5 -3 -12 -13 -15
-23 -8 -196 -184 -249 -255 -23 -30 -54 -67 -68 -84 -15 -16 -48 -57 -74 -90
-25 -33 -51 -65 -57 -71 -5 -6 -30 -36 -54 -65 -69 -85 -359 -367 -448 -437
-44 -35 -117 -86 -162 -113 -85 -51 -344 -162 -511 -219 -52 -18 -134 -50
-181 -71 -217 -97 -496 -185 -944 -296 -69 -17 -238 -40 -254 -35 -28 9 -6 21
52 27 59 6 220 42 317 70 25 7 83 23 130 35 198 53 517 158 638 210 12 6 32
14 45 19 12 4 54 21 92 36 39 16 91 36 118 45 26 9 50 20 54 24 3 3 17 6 30 6
12 0 23 5 23 10 0 6 7 10 15 10 8 0 29 6 47 14 18 8 69 29 113 47 102 40 269
127 285 148 3 3 22 19 44 35 165 123 463 426 610 620 37 50 72 93 77 94 5 2 9
9 9 15 1 27 120 156 461 497 138 138 234 225 295 267 49 34 101 72 115 85 95
84 121 105 179 146 36 26 67 49 70 52 3 3 21 17 40 30 19 13 37 27 40 30 3 4
32 25 65 46 98 65 306 213 356 252 26 20 64 50 85 67 62 47 249 240 285 292
18 27 35 50 39 53 26 21 97 163 120 241 20 68 27 174 11 183 -4 3 -11 20 -15
38 -8 42 -38 108 -48 108 -4 0 -8 6 -8 14 0 13 -111 128 -252 262 -137 130
-266 273 -291 324 -31 62 -36 138 -13 212 14 48 78 149 117 185 23 20 188 120
254 153 17 8 32 18 35 21 3 4 29 18 58 33 79 40 183 110 213 142 64 70 56 82
-9 14 -39 -41 -72 -72 -72 -67 0 4 -11 0 -25 -9 -13 -9 -30 -14 -36 -12 -7 2
5 15 27 28 97 59 164 135 164 184 -1 69 -96 180 -182 213 -29 12 -60 24 -68
27 -13 5 -15 -9 -16 -91 -1 -54 -3 -139 -4 -189 l-3 -90 -101 -49 c-56 -27
-104 -51 -108 -53 -5 -2 -8 416 -9 930 0 513 -3 927 -6 921 -3 -10 -43 -13
-149 -13 -167 0 -166 -1 -109 90 19 30 40 66 47 80 6 14 26 45 43 70 18 25 39
59 47 75 16 31 69 125 133 235 20 36 46 81 57 100 32 55 51 74 61 58 4 -7 28
-49 54 -93z m808 -807 c26 -46 103 -176 170 -289 121 -203 155 -263 155 -274
0 -3 -58 -5 -130 -5 l-130 0 0 -1037 c0 -570 -3 -1033 -7 -1029 -4 4 -13 42
-19 84 -7 42 -12 62 -13 43 -1 -26 -4 -31 -14 -23 -8 7 -18 7 -27 2 -11 -7
-11 -10 -2 -11 37 -4 52 -16 52 -40 0 -18 -2 -18 -27 5 -56 49 -69 61 -57 53
8 -5 10 0 6 18 -3 20 -10 25 -32 23 -16 -1 -26 -6 -23 -10 2 -5 14 -6 26 -3
20 5 20 5 4 -5 -15 -9 -22 -8 -36 4 -10 9 -23 16 -29 16 -12 0 -16 121 -20
610 -2 167 -5 306 -7 309 -3 2 -5 -195 -5 -439 0 -244 -2 -441 -5 -438 -3 2
-5 433 -5 956 l0 951 -28 -10 c-16 -5 -76 -8 -135 -7 l-106 3 35 60 c19 33 48
80 64 105 16 25 41 65 55 90 14 25 31 54 38 65 21 34 60 99 71 120 24 45 119
185 125 185 4 0 29 -37 56 -82z m-1508 -1115 c22 -38 61 -108 88 -158 26 -49
51 -94 55 -100 4 -5 31 -55 61 -110 29 -55 63 -117 76 -138 13 -21 26 -51 30
-67 l6 -30 -125 0 -125 0 -7 -467 c-12 -725 -16 -926 -21 -931 -2 -2 -39 8
-83 23 l-79 27 0 685 c0 579 -2 686 -14 694 -8 5 -39 8 -69 8 -43 0 -50 -2
-32 -9 12 -5 22 -14 22 -19 0 -5 8 -12 18 -14 19 -5 -90 1 -155 9 -28 3 -43
10 -43 20 0 8 5 14 10 14 6 0 10 6 10 14 0 7 24 60 54 117 30 57 65 124 78
149 12 25 25 47 28 50 3 3 25 43 49 90 67 133 112 210 121 210 4 0 26 -30 47
-67z m3606 -97 c-53 -60 -149 -257 -158 -322 -4 -30 -16 -62 -30 -80 l-24 -29
6 119 6 118 -79 -83 c-43 -46 -97 -95 -119 -108 -63 -38 -82 -59 -106 -120
-47 -116 -163 -271 -203 -271 -8 0 -25 9 -39 20 l-26 21 -15 -36 c-15 -34 -82
-126 -98 -133 -5 -2 -8 -8 -8 -14 0 -5 -6 -24 -14 -41 -21 -48 -43 -121 -66
-227 -37 -169 -42 -184 -53 -165 -15 27 -20 172 -9 250 5 39 8 71 7 73 -2 2
-22 -9 -44 -24 -45 -29 -93 -28 -116 3 -24 32 -74 21 -164 -37 -99 -63 -192
-166 -241 -267 -18 -38 -52 -93 -75 -123 -22 -30 -54 -81 -70 -112 -18 -35
-33 -54 -39 -48 -22 22 52 184 106 229 15 13 46 58 69 100 70 128 126 192 220
255 82 54 151 78 186 65 15 -6 36 -18 46 -27 18 -16 21 -14 55 24 54 59 69 79
88 116 24 47 149 165 189 178 24 8 40 8 54 1 29 -16 73 -13 99 5 25 17 78 117
112 211 23 63 51 96 135 158 22 17 42 33 43 38 2 4 9 7 14 7 21 0 152 106 272
219 120 113 162 140 89 57z m-4868 -982 c90 -30 173 -80 230 -138 80 -81 149
-137 234 -188 47 -29 91 -59 98 -67 6 -9 42 -77 79 -151 68 -137 131 -239 181
-296 61 -70 74 -86 70 -90 -2 -3 -53 44 -112 103 -105 105 -184 210 -239 321
-25 49 -32 55 -120 98 -52 25 -103 54 -114 64 -19 18 -19 18 -15 -88 5 -108
-14 -268 -38 -328 l-12 -29 -7 25 c-5 14 -9 50 -9 80 -1 52 -16 195 -42 414
-9 77 -17 102 -33 118 -39 37 -141 106 -198 134 -56 27 -73 44 -44 44 7 0 49
-12 91 -26z m-1182 -25 c37 -35 131 -106 168 -126 123 -68 228 -70 394 -7 128
49 182 50 249 5 51 -35 124 -133 150 -201 29 -73 52 -103 115 -149 78 -57 98
-102 117 -270 7 -69 14 -144 13 -166 0 -37 -1 -38 -11 -15 -15 38 -45 149 -52
197 -13 85 -47 156 -107 218 -31 33 -74 91 -93 128 -54 101 -83 145 -123 184
-71 68 -115 70 -224 6 -77 -44 -86 -47 -168 -51 -172 -8 -318 67 -429 222 -36
49 -35 59 1 25z m-97 -446 c-2 -65 0 -102 4 -83 l7 35 12 -30 c6 -16 14 -36
16 -43 7 -20 -18 -92 -32 -92 -16 0 -17 -17 -1 -22 8 -3 8 -9 0 -24 -6 -10
-12 -14 -12 -9 -4 30 -11 63 -22 88 -8 21 -8 31 1 40 6 6 10 25 10 42 l-2 30
-7 -35 c-6 -30 -8 -31 -10 -10 -1 14 -2 31 -1 39 2 7 -2 10 -8 6 -6 -3 -11 -2
-11 4 0 5 5 11 11 13 9 3 9 17 -1 54 -16 63 -8 101 23 107 12 2 23 5 24 6 1 0
1 -52 -1 -116z m5622 78 c10 -6 2 -11 -24 -16 -21 -3 -67 -18 -103 -33 -59
-23 -80 -40 -196 -158 -120 -121 -135 -133 -187 -148 -37 -11 -64 -26 -79 -44
-20 -25 -21 -33 -13 -122 11 -126 8 -218 -7 -255 -10 -26 -13 -27 -17 -10 -2
11 -15 55 -29 98 -19 59 -29 77 -43 77 -14 0 -17 6 -13 23 4 19 2 18 -12 -5
-13 -24 -22 -28 -59 -28 -49 0 -62 -11 -98 -85 -35 -70 -78 -149 -87 -158 -4
-4 -13 4 -20 17 -12 21 -11 28 11 58 13 18 36 58 51 88 16 33 62 92 112 145
47 49 87 97 91 107 3 10 9 18 12 18 4 0 34 25 67 56 33 30 83 68 111 84 65 38
111 75 205 164 82 79 143 110 249 125 30 5 57 9 60 10 3 0 11 -3 18 -8z
m-5581 -283 c-3 -7 -5 -2 -5 12 0 14 2 19 5 13 2 -7 2 -19 0 -25z m-10 -55
c-3 -10 -5 -4 -5 12 0 17 2 24 5 18 2 -7 2 -21 0 -30z m3169 -135 c7 -10 10
-18 6 -18 -4 0 0 -5 8 -10 12 -8 12 -10 -5 -11 -11 0 -15 -3 -9 -5 13 -5 6
-54 -7 -54 -5 0 -9 -10 -9 -22 0 -27 -27 -58 -52 -58 -14 0 -18 8 -18 35 0 28
-4 35 -20 35 -19 0 -20 7 -20 131 l0 132 56 -69 c30 -38 62 -77 70 -86z
m-3179 80 c-3 -7 -5 -2 -5 12 0 14 2 19 5 13 2 -7 2 -19 0 -25z m38 -96 c-6
-7 -35 18 -35 31 0 5 9 2 20 -8 11 -10 18 -20 15 -23z m29 2 c3 -8 2 -12 -4
-9 -6 3 -10 10 -10 16 0 14 7 11 14 -7z m45 -82 c1 -7 -3 -10 -9 -7 -5 3 -10
18 -9 33 0 24 1 25 9 7 5 -11 9 -26 9 -33z m3104 23 c4 -8 3 -16 -1 -19 -4 -3
-9 4 -9 15 -2 23 3 25 10 4z m-981 -56 c19 -44 7 -63 -17 -24 -47 78 -46 72
-22 68 14 -3 28 -19 39 -44z m-801 -29 c113 -45 287 -196 499 -431 69 -77 101
-131 85 -147 -3 -3 -18 7 -33 21 -16 15 -32 27 -36 27 -5 0 -5 -37 -2 -82 4
-49 2 -89 -3 -98 -14 -21 -20 -10 -31 55 -10 63 -75 206 -116 254 -39 47 -72
42 -231 -34 -75 -36 -139 -62 -142 -59 -7 8 128 135 187 175 23 17 42 34 42
38 0 14 -212 227 -263 265 -57 42 -39 48 44 16z m1034 -70 c21 -17 75 -30 153
-35 40 -3 87 -11 105 -19 60 -27 179 -156 192 -209 4 -15 5 -27 2 -27 -3 0
-32 34 -63 76 -63 83 -99 110 -190 143 -76 26 -221 28 -228 1 -2 -8 -7 -27
-10 -42 -10 -45 -24 -32 -37 32 -6 33 -20 70 -30 81 -36 41 -24 50 37 29 31
-11 63 -25 69 -30z m-2378 -12 c-3 -8 -6 -5 -6 6 -1 11 2 17 5 13 3 -3 4 -12
1 -19z m36 -63 c-3 -9 -8 -14 -10 -11 -3 3 -2 9 2 15 9 16 15 13 8 -4z m1913
-493 c-11 -10 -15 4 -8 28 l7 25 3 -23 c2 -13 1 -26 -2 -30z m3373 -346 c-2
-2 -56 -9 -119 -16 -147 -15 -175 -22 -257 -70 -74 -42 -91 -44 -49 -5 38 36
102 66 166 81 50 11 269 20 259 10z m31 -296 c-12 -8 -11 -10 6 -10 12 0 27
-7 34 -15 16 -19 11 -19 -35 1 -29 12 -35 18 -24 25 8 5 19 9 24 9 6 0 3 -5
-5 -10z m-35 -29 c-3 -5 -1 -12 5 -16 5 -3 10 -14 10 -23 0 -13 -2 -14 -9 -4
-4 7 -17 14 -29 15 -11 0 -19 5 -16 9 3 4 11 5 20 1 8 -3 14 -2 13 3 -2 14 0
24 7 24 3 0 3 -4 -1 -9z m55 -35 c0 -2 -7 -6 -15 -10 -8 -3 -15 -1 -15 4 0 6
7 10 15 10 8 0 15 -2 15 -4z m-105 -16 c-12 -5 -14 -9 -6 -9 8 -1 12 -4 8 -7
-9 -9 -28 6 -22 17 4 5 14 9 23 8 14 0 13 -2 -3 -9z m-4675 -26 c22 -9 40 -20
40 -25 0 -5 -7 -5 -17 -2 -10 4 -14 2 -9 -5 7 -12 -21 -5 -99 27 l-50 20 47 1
c26 0 66 -7 88 -16z m4735 -4 c-3 -5 -12 -10 -18 -10 -7 0 -6 4 3 10 19 12 23
12 15 0z m-5029 -57 c-21 -21 -42 -47 -46 -59 -7 -19 -19 -22 -107 -27 -67 -5
-129 -17 -196 -37 -115 -36 -145 -34 -67 4 70 34 198 66 263 66 43 0 58 6 101
39 44 33 67 47 85 50 2 1 -13 -16 -33 -36z m5271 -40 c3 -7 -17 -18 -49 -27
-86 -25 -118 -28 -118 -13 0 12 36 32 90 51 25 8 73 2 77 -11z m243 -33 c8 -5
11 -10 5 -10 -5 0 -17 5 -25 10 -8 5 -10 10 -5 10 6 0 17 -5 25 -10z m80 -48
c0 -24 62 -40 175 -46 136 -7 335 -53 335 -78 0 -10 -27 -10 -34 0 -2 4 -19 9
-38 10 -18 2 -73 9 -123 17 -49 8 -136 15 -192 15 l-102 0 -22 33 c-13 17 -27
34 -31 35 -4 2 -8 10 -8 18 0 8 -7 14 -16 14 -8 0 -12 4 -9 10 7 11 65 -15 65
-28z m-5972 -217 c-3 -3 -9 2 -12 12 -6 14 -5 15 5 6 7 -7 10 -15 7 -18z
m6482 -90 c-7 -9 -15 -13 -17 -11 -7 7 7 26 19 26 6 0 6 -6 -2 -15z m-6319
-231 c9 -11 -2 -14 -72 -13 -46 0 -92 -3 -101 -6 -26 -10 -22 10 5 23 33 16
42 17 101 14 31 -2 60 -10 67 -18z m-91 -189 c0 -2 -10 -10 -22 -16 -21 -11
-22 -11 -9 4 13 16 31 23 31 12z m6250 -94 c0 -11 -54 -31 -83 -31 -28 0 -13
13 31 26 48 15 52 16 52 5z m-6347 -13 c9 0 17 -3 17 -9 0 -5 -11 -9 -24 -9
-40 0 -86 12 -86 22 0 6 14 7 38 3 20 -4 45 -8 55 -7z m-112 -141 c-13 -13
-14 5 -3 54 l7 34 3 -39 c2 -21 -1 -43 -7 -49z m1814 14 c-3 -6 -11 -11 -17
-11 -6 0 -6 6 2 15 14 17 26 13 15 -4z m-1565 -11 c0 -5 -3 -10 -7 -10 -5 0
-24 -14 -43 -30 -35 -30 -50 -37 -50 -22 1 8 81 72 93 72 4 0 7 -4 7 -10z
m5989 -112 c41 -24 121 -98 121 -111 0 -5 -26 13 -57 40 -32 27 -71 59 -87 71
-37 28 -24 28 23 0z m-5457 -248 c7 0 1 -11 -12 -25 -13 -14 -29 -25 -36 -25
-6 0 -17 -6 -23 -14 -13 -16 -54 -29 -45 -15 8 14 -10 11 -32 -6 -10 -8 -23
-14 -29 -15 -5 0 -3 5 5 10 8 5 11 10 6 10 -5 0 19 20 55 45 35 25 70 43 77
40 6 -2 13 3 13 13 1 16 2 16 6 0 2 -10 9 -18 15 -18z m6017 16 c6 -4 11 -15
11 -24 0 -14 -2 -14 -9 -3 -7 11 -15 12 -38 3 -15 -6 -53 -14 -83 -17 -46 -6
-63 -3 -98 15 -23 12 -42 25 -42 29 0 8 245 5 259 -3z m1 -184 c62 -30 168
-118 156 -130 -3 -3 -32 14 -63 37 -68 48 -146 91 -168 91 -8 0 -15 6 -15 13
0 16 10 28 19 23 3 -1 35 -17 71 -34z m50 -262 c0 -5 -2 -10 -4 -10 -3 0 -8 5
-11 10 -3 6 -1 10 4 10 6 0 11 -4 11 -10z m302 -64 c7 -11 1 -26 -11 -26 -4 0
-13 11 -19 25 -10 21 -9 23 6 18 9 -4 20 -11 24 -17z m-7262 9 c0 -2 -10 -9
-22 -15 -22 -11 -22 -10 -4 4 21 17 26 19 26 11z m-70 -39 c0 -2 -7 -7 -16
-10 -8 -3 -12 -2 -9 4 6 10 25 14 25 6z m6175 -170 c11 -5 22 -10 25 -11 16
-1 90 -39 90 -47 0 -4 -16 -8 -35 -8 -34 0 -175 66 -175 81 0 10 70 -1 95 -15z"/>
<path d="M7700 7621 c0 -6 4 -13 10 -16 6 -3 7 1 4 9 -7 18 -14 21 -14 7z"/>
<path d="M5735 4660 c-3 -5 -9 -33 -12 -61 -6 -47 -4 -52 11 -46 10 4 29 7 42
7 22 0 24 3 24 55 0 54 0 55 -29 55 -17 0 -33 -4 -36 -10z"/>
<path d="M5720 4470 c0 -5 -6 -10 -12 -10 -12 0 -68 -109 -68 -131 0 -5 27 -9
59 -9 57 0 60 1 76 33 9 17 19 53 22 80 l6 47 -42 0 c-22 0 -41 -4 -41 -10z"/>
<path d="M5580 4235 c0 -8 -5 -15 -12 -15 -6 0 -9 -3 -5 -6 3 -4 -1 -13 -9
-21 -8 -8 -12 -19 -9 -24 4 -5 2 -9 -3 -9 -6 0 -23 -21 -38 -47 -15 -27 -32
-51 -38 -55 -6 -4 -8 -9 -6 -12 5 -4 136 -10 171 -7 10 0 32 34 56 84 66 135
68 127 -26 127 -65 0 -81 -3 -81 -15z"/>
<path d="M5381 3940 c-9 -14 -21 -32 -28 -40 -36 -46 -83 -111 -83 -115 0 -3
49 -5 110 -5 l109 0 31 44 c16 25 30 49 30 55 0 6 3 11 8 11 7 0 32 47 32 61
0 4 -43 9 -96 11 -94 3 -97 2 -113 -22z"/>
<path d="M5216 3667 c-10 -17 -30 -52 -44 -77 -14 -25 -28 -47 -32 -50 -20
-15 -59 -79 -64 -103 l-5 -28 122 3 121 3 18 35 c9 19 27 58 39 85 12 28 30
68 40 89 11 22 19 43 19 48 0 4 -42 9 -92 10 l-93 2 85 6 85 6 -90 2 -90 2
-19 -33z"/>
<path d="M5019 3326 c-5 -6 -9 -17 -9 -26 0 -8 -6 -24 -14 -35 -24 -34 -56
-95 -56 -106 0 -5 -13 -38 -29 -72 -16 -34 -38 -84 -50 -112 -12 -27 -33 -72
-46 -100 -24 -48 -55 -123 -55 -131 0 -2 87 -4 194 -4 132 0 197 4 202 11 3 6
10 41 15 78 21 174 75 431 99 473 6 10 10 20 10 22 0 10 -251 11 -261 2z"/>
<path d="M4740 2653 c-9 -10 -21 -36 -27 -58 -7 -22 -27 -87 -44 -145 -17 -58
-35 -114 -39 -125 -15 -35 -32 -109 -31 -133 1 -13 -3 -21 -8 -18 -9 6 -12 -5
-29 -96 -8 -46 -8 -46 21 -52 40 -8 526 -7 556 1 l24 6 -6 305 c-5 203 -11
309 -18 318 -9 11 -53 14 -198 14 -165 0 -188 -2 -201 -17z"/>
<path d="M5923 5750 c0 -30 2 -43 4 -27 2 15 2 39 0 55 -2 15 -4 2 -4 -28z"/>
<path d="M5927 5555 c6 -104 11 -119 12 -30 0 39 -4 79 -8 90 -5 11 -6 -16 -4
-60z"/>
<path d="M4413 4835 c0 -33 2 -45 4 -27 2 18 2 45 0 60 -2 15 -4 0 -4 -33z"/>
<path d="M2470 1741 c0 -6 4 -12 8 -15 5 -3 9 1 9 9 0 8 -4 15 -9 15 -4 0 -8
-4 -8 -9z"/>
</g>
</svg>
